<svg width="159" height="56" viewBox="0 0 159 56" fill="none" xmlns="http://www.w3.org/2000/svg">
<path d="M79.1937 17.2567L86.7547 16.7926C86.9196 17.9946 87.2532 18.9097 87.7556 19.5379C88.5762 20.5561 89.7458 21.0652 91.2643 21.0652C92.3975 21.0652 93.2718 20.8055 93.8872 20.2861C94.1691 20.0704 94.398 19.7958 94.5573 19.4824C94.7165 19.1689 94.802 18.8246 94.8075 18.4746C94.8029 18.1391 94.7232 17.8087 94.5742 17.5064C94.4251 17.2042 94.2103 16.9375 93.9447 16.725C93.3695 16.2112 92.013 15.7246 89.8752 15.2652C86.3895 14.5001 83.9037 13.4819 82.4177 12.2105C81.6946 11.6181 81.1172 10.8741 80.7284 10.0336C80.3395 9.19312 80.1492 8.27779 80.1716 7.35553C80.1771 6.05223 80.5774 4.77976 81.322 3.69886C82.1723 2.48061 83.3735 1.53684 84.7732 0.987301C86.307 0.3291 88.4161 0 91.1004 0C94.3867 0 96.8927 0.598194 98.6183 1.79458C100.344 2.99097 101.371 4.89244 101.698 7.49899L94.2065 7.92654C94.0147 6.80141 93.5968 5.97819 92.9525 5.45688C92.3083 4.93557 91.4263 4.67585 90.3066 4.67773C89.3834 4.67773 88.6874 4.87181 88.2215 5.25435C88.0014 5.41986 87.8235 5.63297 87.7018 5.87698C87.58 6.12099 87.5177 6.38926 87.5197 6.66077C87.5267 6.87146 87.582 7.07792 87.6816 7.26488C87.7812 7.45184 87.9224 7.61452 88.095 7.74089C88.4688 8.0728 89.3575 8.38221 90.761 8.66912C94.2352 9.40046 96.7278 10.1412 98.2386 10.8913C99.7495 11.6413 100.842 12.5705 101.517 13.6788C102.206 14.803 102.562 16.0924 102.544 17.4029C102.552 18.9898 102.077 20.5429 101.178 21.8641C100.242 23.2416 98.9117 24.318 97.3528 24.9582C95.7135 25.6614 93.6485 26.013 91.1579 26.013C86.7844 26.013 83.7551 25.1898 82.0697 23.5433C80.3844 21.8969 79.4257 19.8013 79.1937 17.2567V17.2567ZM1.80326 25.5911V0.424736H15.0501C17.5063 0.424736 19.3833 0.630072 20.6814 1.04074C21.96 1.44016 23.0654 2.24606 23.822 3.33038C24.6454 4.53391 25.0647 5.95864 25.0213 7.40616C25.0546 8.66936 24.7365 9.91768 24.1009 11.0178C23.491 12.0377 22.6273 12.8901 21.5902 13.4959C20.7182 13.9663 19.7772 14.3022 18.8005 14.4917C19.5313 14.7022 20.2276 15.0138 20.8683 15.4171C21.3444 15.8042 21.7729 16.244 22.1452 16.7279C22.5641 17.2087 22.9349 17.7277 23.2525 18.2777L27.1006 25.5911H18.1188L13.8739 17.8924C13.3351 16.8966 12.8557 16.2497 12.4359 15.9515C11.8637 15.5637 11.182 15.3602 10.4859 15.3693H9.77842V25.5911H1.80326ZM9.77842 10.6156H13.1376C13.8485 10.5637 14.5531 10.4488 15.2428 10.2724C15.7582 10.1757 16.2179 9.89373 16.5313 9.48203C16.8627 9.06615 17.0392 8.5522 17.0317 8.02498C17.0533 7.67497 16.9934 7.32473 16.8564 7.0007C16.7194 6.67666 16.5089 6.3873 16.2408 6.15446C15.7155 5.71941 14.7271 5.50188 13.2756 5.50188H9.77842V10.6156ZM0 47.126L7.56102 46.6647C7.72591 47.8668 8.05953 48.7819 8.56187 49.4101C9.3729 50.4283 10.5454 50.9374 12.0792 50.9374C13.2124 50.9374 14.0867 50.6768 14.7021 50.1555C14.984 49.9398 15.2129 49.6652 15.3722 49.3517C15.5314 49.0383 15.6169 48.694 15.6225 48.344C15.6174 48.0085 15.5376 47.6782 15.3886 47.376C15.2395 47.0739 15.0249 46.8071 14.7597 46.5944C14.1845 46.0806 12.8279 45.5949 10.6901 45.1374C7.2044 44.3685 4.71857 43.3503 3.23263 42.0827C2.50964 41.4896 1.93235 40.745 1.54353 39.9041C1.1547 39.0632 0.964318 38.1475 0.98647 37.2249C0.992836 35.9217 1.39309 34.6495 2.13687 33.5682C2.98724 32.35 4.18844 31.4062 5.58808 30.8567C7.12195 30.1985 9.23102 29.8694 11.9153 29.8694C15.2016 29.8694 17.7076 30.4676 19.4332 31.664C21.1588 32.8603 22.1855 34.7618 22.5134 37.3684L15.0358 37.7987C14.844 36.6736 14.426 35.8494 13.7818 35.3262C13.1376 34.8031 12.2566 34.5462 11.1388 34.5555C10.2165 34.5555 9.5215 34.7431 9.05367 35.1181C8.8336 35.2836 8.65571 35.4967 8.53396 35.7407C8.41221 35.9847 8.3499 36.253 8.35192 36.5245C8.35848 36.7357 8.41359 36.9427 8.51317 37.1302C8.61275 37.3177 8.75424 37.4808 8.92712 37.6074C9.301 37.9394 10.1897 38.2478 11.5932 38.5329C15.0674 39.2642 17.5599 40.0049 19.0708 40.755C20.5817 41.5051 21.6745 42.4343 22.3494 43.5425C23.0378 44.6669 23.3933 45.9562 23.3762 47.2667C23.3848 48.8535 22.9092 50.4068 22.0101 51.7278C21.0746 53.1053 19.7439 54.1817 18.185 54.8219C16.5457 55.5251 14.4807 55.8767 11.9901 55.8767C7.61662 55.8767 4.58723 55.0535 2.90189 53.4071C1.21655 51.7606 0.249254 49.667 0 47.126ZM46.8789 45.1543L53.8446 47.2132C53.4593 48.9415 52.7057 50.5709 51.6329 51.995C50.6554 53.2534 49.3696 54.2507 47.8941 54.8951C46.4024 55.5458 44.5043 55.8711 42.1996 55.8711C39.4042 55.8711 37.1206 55.4745 35.349 54.6813C33.5774 53.8881 32.0435 52.4901 30.7474 50.4874C29.4589 48.4865 28.8157 45.9259 28.8176 42.8055C28.8176 38.6463 29.9488 35.4481 32.2113 33.211C34.4737 30.9739 37.6757 29.8562 41.8171 29.8581C45.0593 29.8581 47.6065 30.4994 49.4587 31.7821C51.3108 33.0647 52.6875 35.0337 53.5886 37.689L46.5712 39.2164C46.4064 38.6177 46.1463 38.0482 45.8004 37.5287C45.3754 36.9515 44.8165 36.4811 44.1697 36.156C43.4993 35.8294 42.7587 35.6644 42.0098 35.675C40.2094 35.675 38.8299 36.3839 37.8712 37.8015C37.1427 38.8535 36.7793 40.5047 36.7812 42.7549C36.7812 45.5415 37.2146 47.4523 38.0812 48.4874C38.9478 49.5226 40.1644 50.0392 41.7309 50.0373C43.2494 50.0373 44.3998 49.6201 45.1821 48.7856C45.9643 47.9511 46.5299 46.7407 46.8789 45.1543V45.1543ZM59.9676 30.2941H67.914V39.0926H76.5996V30.2941H84.5805V55.4492H76.5996V45.2808H67.914V55.4576H59.9676V30.2941ZM89.5272 42.8871C89.5272 38.7841 90.6968 35.5869 93.0359 33.2954C95.3751 31.0039 98.6346 29.86 102.814 29.8637C107.094 29.8637 110.392 30.9889 112.708 33.2391C115.024 35.4894 116.185 38.6369 116.191 42.6818C116.191 45.624 115.684 48.0355 114.672 49.9164C113.687 51.7724 112.16 53.3006 110.286 54.3072C108.369 55.3535 105.986 55.8767 103.136 55.8767C100.237 55.8767 97.8408 55.4248 95.9464 54.521C94.0002 53.5777 92.3897 52.0829 91.3247 50.2314C90.1245 48.2774 89.5253 45.8293 89.5272 42.8871V42.8871ZM97.4736 42.9237C97.4736 45.4646 97.9529 47.2892 98.9116 48.3974C99.8703 49.5057 101.184 50.0598 102.852 50.0598C104.56 50.0598 105.882 49.5169 106.818 48.4312C107.753 47.3454 108.221 45.3952 108.221 42.5805C108.221 40.2121 107.732 38.4813 106.754 37.388C105.777 36.2948 104.452 35.7491 102.78 35.751C102.053 35.7254 101.329 35.8609 100.664 36.1473C99.9977 36.4337 99.4067 36.8636 98.9346 37.4049C97.9625 38.5301 97.4755 40.3696 97.4736 42.9237V42.9237Z" fill="white"/>
<path d="M112.82 42.8867C112.82 38.7837 113.99 35.5865 116.329 33.295C118.668 31.0035 121.928 29.8596 126.107 29.8634C130.391 29.8634 133.69 30.9885 136.004 33.2387C138.318 35.489 139.475 38.6375 139.475 42.6842C139.475 45.6264 138.97 48.0379 137.959 49.9188C136.973 51.7743 135.447 53.3022 133.574 54.3096C131.656 55.356 129.273 55.8791 126.424 55.8791C123.523 55.8791 121.126 55.4272 119.234 54.5234C117.287 53.5794 115.676 52.0848 114.609 50.2338C113.417 48.278 112.82 45.8289 112.82 42.8867V42.8867ZM120.77 42.9233C120.77 45.4642 121.249 47.2888 122.208 48.397C123.166 49.5053 124.482 50.0603 126.153 50.0622C127.862 50.0622 129.184 49.5194 130.119 48.4336C131.055 47.3479 131.523 45.3976 131.523 42.5829C131.523 40.2145 131.035 38.4837 130.059 37.3905C129.083 36.2972 127.758 35.7515 126.084 35.7534C125.356 35.726 124.631 35.8603 123.964 36.1463C123.296 36.4323 122.704 36.8624 122.231 37.4045C121.255 38.5297 120.768 40.3692 120.77 42.9233V42.9233Z" fill="white"/>
<path d="M138.646 30.2937H146.596V49.2549H159V55.4431H138.646V30.2937Z" fill="white"/>
</svg>
