<svg width="512" height="512" viewBox="0 0 512 512" fill="none" xmlns="http://www.w3.org/2000/svg">
<g clip-path="url(#clip0)">
<mask id="mask0" mask-type="alpha" maskUnits="userSpaceOnUse" x="0" y="0" width="513" height="512">
<path d="M225.474 0C101.151 0 0 101.151 0 225.474C0 349.804 101.151 450.948 225.474 450.948C349.804 450.948 450.948 349.804 450.948 225.474C450.948 101.151 349.804 0 225.474 0ZM225.474 409.323C124.101 409.323 41.626 326.848 41.626 225.475C41.626 124.102 124.101 41.626 225.474 41.626C326.847 41.626 409.322 124.101 409.322 225.474C409.322 326.847 326.847 409.323 225.474 409.323Z" fill="url(#paint0_linear)"/>
<path d="M505.902 476.472L386.574 357.144C378.443 349.013 365.275 349.013 357.144 357.144C349.013 365.268 349.013 378.45 357.144 386.574L476.472 505.902C480.537 509.967 485.859 512 491.187 512C496.508 512 501.836 509.967 505.902 505.902C514.033 497.778 514.033 484.596 505.902 476.472Z" fill="url(#paint1_linear)"/>
<path d="M225.474 0C101.151 0 0 101.151 0 225.474C0 349.804 101.151 450.948 225.474 450.948C349.804 450.948 450.948 349.804 450.948 225.474C450.948 101.151 349.804 0 225.474 0ZM225.474 409.323C124.101 409.323 41.626 326.848 41.626 225.475C41.626 124.102 124.101 41.626 225.474 41.626C326.847 41.626 409.322 124.101 409.322 225.474C409.322 326.847 326.847 409.323 225.474 409.323Z" fill="url(#paint2_linear)"/>
<path d="M225.474 0C101.151 0 0 101.151 0 225.474C0 349.804 101.151 450.948 225.474 450.948C349.804 450.948 450.948 349.804 450.948 225.474C450.948 101.151 349.804 0 225.474 0ZM225.474 409.323C124.101 409.323 41.626 326.848 41.626 225.475C41.626 124.102 124.101 41.626 225.474 41.626C326.847 41.626 409.322 124.101 409.322 225.474C409.322 326.847 326.847 409.323 225.474 409.323Z" fill="url(#paint3_linear)"/>
<path d="M505.902 476.472L386.574 357.144C378.443 349.013 365.275 349.013 357.144 357.144C349.013 365.268 349.013 378.45 357.144 386.574L476.472 505.902C480.537 509.967 485.859 512 491.187 512C496.508 512 501.836 509.967 505.902 505.902C514.033 497.778 514.033 484.596 505.902 476.472Z" fill="url(#paint4_linear)"/>
<path d="M505.902 476.472L386.574 357.144C378.443 349.013 365.275 349.013 357.144 357.144C349.013 365.268 349.013 378.45 357.144 386.574L476.472 505.902C480.537 509.967 485.859 512 491.187 512C496.508 512 501.836 509.967 505.902 505.902C514.033 497.778 514.033 484.596 505.902 476.472Z" fill="url(#paint5_linear)"/>
</mask>
<g mask="url(#mask0)">
<path d="M225.474 0C101.151 0 0 101.151 0 225.474C0 349.804 101.151 450.948 225.474 450.948C349.804 450.948 450.948 349.804 450.948 225.474C450.948 101.151 349.804 0 225.474 0ZM225.474 409.323C124.101 409.323 41.626 326.848 41.626 225.475C41.626 124.102 124.101 41.626 225.474 41.626C326.847 41.626 409.322 124.101 409.322 225.474C409.322 326.847 326.847 409.323 225.474 409.323Z" fill="url(#paint6_linear)"/>
<path d="M505.902 476.472L386.574 357.144C378.443 349.013 365.275 349.013 357.144 357.144C349.013 365.268 349.013 378.45 357.144 386.574L476.472 505.902C480.537 509.967 485.859 512 491.187 512C496.508 512 501.836 509.967 505.902 505.902C514.033 497.778 514.033 484.596 505.902 476.472Z" fill="url(#paint7_linear)"/>
<path d="M225.474 0C101.151 0 0 101.151 0 225.474C0 349.804 101.151 450.948 225.474 450.948C349.804 450.948 450.948 349.804 450.948 225.474C450.948 101.151 349.804 0 225.474 0ZM225.474 409.323C124.101 409.323 41.626 326.848 41.626 225.475C41.626 124.102 124.101 41.626 225.474 41.626C326.847 41.626 409.322 124.101 409.322 225.474C409.322 326.847 326.847 409.323 225.474 409.323Z" fill="url(#paint8_linear)"/>
<path d="M225.474 0C101.151 0 0 101.151 0 225.474C0 349.804 101.151 450.948 225.474 450.948C349.804 450.948 450.948 349.804 450.948 225.474C450.948 101.151 349.804 0 225.474 0ZM225.474 409.323C124.101 409.323 41.626 326.848 41.626 225.475C41.626 124.102 124.101 41.626 225.474 41.626C326.847 41.626 409.322 124.101 409.322 225.474C409.322 326.847 326.847 409.323 225.474 409.323Z" fill="url(#paint9_linear)"/>
<path d="M505.902 476.472L386.574 357.144C378.443 349.013 365.275 349.013 357.144 357.144C349.013 365.268 349.013 378.45 357.144 386.574L476.472 505.902C480.537 509.967 485.859 512 491.187 512C496.508 512 501.836 509.967 505.902 505.902C514.033 497.778 514.033 484.596 505.902 476.472Z" fill="url(#paint10_linear)"/>
<path d="M505.902 476.472L386.574 357.144C378.443 349.013 365.275 349.013 357.144 357.144C349.013 365.268 349.013 378.45 357.144 386.574L476.472 505.902C480.537 509.967 485.859 512 491.187 512C496.508 512 501.836 509.967 505.902 505.902C514.033 497.778 514.033 484.596 505.902 476.472Z" fill="url(#paint11_linear)"/>
</g>
</g>
<defs>
<linearGradient id="paint0_linear" x1="256" y1="6.37974e-05" x2="256" y2="512" gradientUnits="userSpaceOnUse">
<stop offset="0.9999" stop-color="#F5F5F5"/>
<stop offset="1" stop-color="white" stop-opacity="0"/>
</linearGradient>
<linearGradient id="paint1_linear" x1="256" y1="6.37974e-05" x2="256" y2="512" gradientUnits="userSpaceOnUse">
<stop offset="0.9999" stop-color="#F5F5F5"/>
<stop offset="1" stop-color="white" stop-opacity="0"/>
</linearGradient>
<linearGradient id="paint2_linear" x1="256" y1="6.37974e-05" x2="256" y2="512" gradientUnits="userSpaceOnUse">
<stop offset="0.9999" stop-color="#F5F5F5"/>
<stop offset="1" stop-color="white" stop-opacity="0"/>
</linearGradient>
<linearGradient id="paint3_linear" x1="256" y1="6.37974e-05" x2="256" y2="512" gradientUnits="userSpaceOnUse">
<stop offset="0.9999" stop-color="#F5F5F5"/>
<stop offset="1" stop-color="white" stop-opacity="0"/>
</linearGradient>
<linearGradient id="paint4_linear" x1="256" y1="6.37974e-05" x2="256" y2="512" gradientUnits="userSpaceOnUse">
<stop offset="0.9999" stop-color="#F5F5F5"/>
<stop offset="1" stop-color="white" stop-opacity="0"/>
</linearGradient>
<linearGradient id="paint5_linear" x1="256" y1="6.37974e-05" x2="256" y2="512" gradientUnits="userSpaceOnUse">
<stop offset="0.9999" stop-color="#F5F5F5"/>
<stop offset="1" stop-color="white" stop-opacity="0"/>
</linearGradient>
<linearGradient id="paint6_linear" x1="256" y1="6.37974e-05" x2="256" y2="512" gradientUnits="userSpaceOnUse">
<stop offset="0.9999" stop-color="#707070"/>
<stop offset="1" stop-color="white" stop-opacity="0"/>
</linearGradient>
<linearGradient id="paint7_linear" x1="256" y1="6.37974e-05" x2="256" y2="512" gradientUnits="userSpaceOnUse">
<stop offset="0.9999" stop-color="#707070"/>
<stop offset="1" stop-color="white" stop-opacity="0"/>
</linearGradient>
<linearGradient id="paint8_linear" x1="256" y1="6.37974e-05" x2="256" y2="512" gradientUnits="userSpaceOnUse">
<stop offset="0.9999" stop-color="#707070"/>
<stop offset="1" stop-color="white" stop-opacity="0"/>
</linearGradient>
<linearGradient id="paint9_linear" x1="256" y1="6.37974e-05" x2="256" y2="512" gradientUnits="userSpaceOnUse">
<stop offset="0.9999" stop-color="#707070"/>
<stop offset="1" stop-color="white" stop-opacity="0"/>
</linearGradient>
<linearGradient id="paint10_linear" x1="256" y1="6.37974e-05" x2="256" y2="512" gradientUnits="userSpaceOnUse">
<stop offset="0.9999" stop-color="#707070"/>
<stop offset="1" stop-color="white" stop-opacity="0"/>
</linearGradient>
<linearGradient id="paint11_linear" x1="256" y1="6.37974e-05" x2="256" y2="512" gradientUnits="userSpaceOnUse">
<stop offset="0.9999" stop-color="#707070"/>
<stop offset="1" stop-color="white" stop-opacity="0"/>
</linearGradient>
<clipPath id="clip0">
<rect width="512" height="512" fill="white"/>
</clipPath>
</defs>
</svg>
