<svg xmlns="http://www.w3.org/2000/svg" height="511pt" version="1.1" viewBox="-58 1 511 511.99995" width="511pt">
<g id="surface1">
<path d="M 257.855469 88.3125 L 257.855469 0 L 49.804688 0 C 22.847656 0 0.5 22.214844 0.5 49.167969 L 0.5 462.832031 C 0.5 489.789062 22.847656 512 49.804688 512 L 346.710938 512 C 373.664062 512 396.011719 489.785156 396.011719 462.832031 L 396.011719 144.929688 L 314.605469 144.929688 C 283.183594 144.929688 257.855469 119.601562 257.855469 88.3125 Z M 111.027344 253.425781 L 190.402344 168.230469 C 192.433594 166.0625 195.277344 164.84375 198.390625 164.84375 C 201.507812 164.84375 204.214844 166.0625 206.382812 168.230469 L 285.757812 253.425781 C 289.820312 257.761719 289.550781 264.667969 285.214844 268.734375 C 283.183594 270.628906 280.472656 271.578125 277.902344 271.578125 C 275.054688 271.578125 272.078125 270.359375 269.910156 268.191406 L 209.09375 203.175781 L 209.09375 357.992188 C 209.09375 363.953125 204.21875 368.828125 198.257812 368.828125 C 192.296875 368.828125 187.421875 363.953125 187.421875 357.992188 L 187.421875 203.175781 L 126.875 268.191406 C 122.8125 272.523438 115.902344 272.796875 111.570312 268.734375 C 107.234375 264.667969 106.964844 257.898438 111.027344 253.425781 Z M 320.566406 429.375 C 320.566406 435.335938 315.691406 440.210938 309.730469 440.210938 L 86.78125 440.210938 C 80.820312 440.210938 75.945312 435.335938 75.945312 429.375 C 75.945312 423.414062 80.820312 418.539062 86.78125 418.539062 L 309.867188 418.539062 C 315.828125 418.539062 320.566406 423.417969 320.566406 429.375 Z M 320.566406 429.375 " style=" stroke:none;fill-rule:nonzero;fill:rgb(0%,0%,0%);fill-opacity:1;" />
<path d="M 314.609375 123.257812 L 381.113281 123.257812 L 279.527344 16.660156 L 279.527344 88.3125 C 279.527344 107.683594 295.101562 123.257812 314.609375 123.257812 Z M 314.609375 123.257812 " style=" stroke:none;fill-rule:nonzero;fill:rgb(0%,0%,0%);fill-opacity:1;" />
</g>
</svg>