<svg width="323" height="323" viewBox="0 0 323 323" fill="none" xmlns="http://www.w3.org/2000/svg">
<path d="M322.043 160.706V14.206C322.043 6.306 315.743 0.00604803 308.343 0.00604803H161.243C142.343 -0.493952 142.343 28.406 161.243 27.806H294.143V160.706C294.143 168.606 300.443 175.406 308.343 174.906C316.243 174.906 322.543 168.606 322.043 160.706Z" fill="#F5F5F5" fill-opacity="0.7"/>
<path d="M160.743 294.307H27.843V161.407C28.443 153.407 21.543 147.107 13.743 147.107C6.34297 147.107 0.0429688 153.407 0.0429688 161.307V308.407C0.0429688 315.807 6.34297 322.107 14.243 322.107H160.743C179.643 322.606 179.643 294.307 160.743 294.307Z" fill="#F5F5F5" fill-opacity="0.7"/>
<path d="M209.643 98.206C205.943 98.206 202.843 99.806 200.143 102.406L102.443 200.106C88.7428 213.206 108.743 233.706 121.843 219.506L220.043 121.806C229.043 112.906 222.743 97.706 209.643 98.206Z" fill="#F5F5F5" fill-opacity="0.7"/>
</svg>
