<?xml version="1.0" encoding="iso-8859-1"?>
<!-- Generator: Adobe Illustrator 19.0.0, SVG Export Plug-In . SVG Version: 6.00 Build 0)  -->
<svg version="1.1" id="Layer_1" xmlns="http://www.w3.org/2000/svg" xmlns:xlink="http://www.w3.org/1999/xlink" x="0px" y="0px"
	 viewBox="0 0 512 512" style="enable-background:new 0 0 512 512;" xml:space="preserve">
<g>
	<g>
		<path d="M195.146,230.594c-3.007,0-5.453,2.446-5.453,5.453c-0.001,3.008,2.446,5.454,5.453,5.454
			c3.007,0,5.453-2.446,5.453-5.454C200.599,233.04,198.153,230.594,195.146,230.594z"/>
	</g>
</g>
<g>
	<g>
		<path d="M201.981,367.896c-3.007,0-5.453,2.446-5.453,5.453c0,3.008,2.446,5.454,5.453,5.454c3.008,0,5.454-2.446,5.454-5.454
			C207.436,370.342,204.989,367.896,201.981,367.896z"/>
	</g>
</g>
<g>
	<g>
		<path d="M188.944,93.292c-3.007,0-5.453,2.446-5.453,5.454c0,3.007,2.447,5.453,5.453,5.453c3.008,0,5.454-2.446,5.454-5.453
			C194.398,95.738,191.952,93.292,188.944,93.292z"/>
	</g>
</g>
<g>
	<g>
		<path d="M310.019,367.896c-3.008,0-5.454,2.446-5.454,5.453c0,3.008,2.446,5.454,5.454,5.454c3.007,0,5.453-2.446,5.453-5.454
			C315.472,370.342,313.025,367.896,310.019,367.896z"/>
	</g>
</g>
<g>
	<g>
		<path d="M323.056,93.292c-3.008,0-5.454,2.446-5.454,5.454c0,3.007,2.446,5.453,5.454,5.453c3.007,0,5.453-2.446,5.453-5.453
			C328.509,95.738,326.063,93.292,323.056,93.292z"/>
	</g>
</g>
<g>
	<g>
		<path d="M316.854,230.594c-3.007,0-5.453,2.446-5.453,5.453c0,3.008,2.446,5.454,5.453,5.454c3.007,0,5.453-2.446,5.453-5.454
			C322.308,233.04,319.861,230.594,316.854,230.594z"/>
	</g>
</g>
<g>
	<g>
		<path d="M424.084,251.047c4.115,16.642,19.167,29.021,37.062,29.021c21.053,0,38.181-17.128,38.181-38.181v-11.679
			c0-21.053-17.128-38.181-38.181-38.181c-17.895,0-32.947,12.378-37.062,29.02h-27.506l5.013-107.301h22.492
			c4.115,16.642,19.167,29.02,37.062,29.02c21.053,0,38.181-17.128,38.181-38.181V92.906c0-21.053-17.128-38.181-38.181-38.181
			c-17.895,0-32.948,12.378-37.062,29.021h-21.092l1.627-34.822l-6.613-4.75C395.493,42.37,335.583,0,256,0
			S116.507,42.37,113.995,44.174l-6.613,4.75l1.627,34.822H87.917c-4.115-16.642-19.167-29.02-37.063-29.02
			c-21.053,0-38.181,17.128-38.181,38.181v11.679c0,21.053,17.128,38.181,38.181,38.181c17.895,0,32.947-12.378,37.062-29.02h22.494
			l5.013,107.301H87.917c-4.115-16.642-19.167-29.02-37.062-29.02c-21.053,0-38.181,17.128-38.181,38.181v11.679
			c0,21.053,17.128,38.181,38.181,38.181c17.895,0,32.948-12.378,37.062-29.021h28.908l5.013,107.302H87.917
			c-4.115-16.642-19.167-29.02-37.062-29.02c-21.053,0-38.181,17.128-38.181,38.181v11.679c0,21.053,17.128,38.181,38.181,38.181
			c17.895,0,32.948-12.378,37.062-29.021h35.322l0.864,18.487l50.67,56.035V512h162.455v-49.129l50.67-56.035l0.864-18.487h35.322
			c4.115,16.642,19.167,29.021,37.062,29.021c21.053,0,38.181-17.128,38.181-38.181V367.51c0-21.053-17.128-38.181-38.181-38.181
			c-17.895,0-32.947,12.378-37.062,29.02h-33.921l5.013-107.302H424.084z M188.944,63.292c19.55,0,35.454,15.904,35.454,35.454
			c0,19.549-15.904,35.453-35.454,35.453c-19.549,0-35.453-15.904-35.453-35.453C153.491,79.196,169.396,63.292,188.944,63.292z
			 M195.146,200.594c19.549,0,35.453,15.904,35.453,35.453c0,19.55-15.904,35.454-35.453,35.454s-35.453-15.904-35.453-35.454
			C159.692,216.498,175.597,200.594,195.146,200.594z M201.981,408.803c-19.549,0-35.453-15.904-35.453-35.454
			c0-19.549,15.904-35.453,35.453-35.453c19.55,0,35.454,15.904,35.454,35.453C237.436,392.898,221.531,408.803,201.981,408.803z
			 M310.019,408.803c-19.55,0-35.454-15.904-35.454-35.454c0-19.549,15.904-35.453,35.454-35.453
			c19.549,0,35.453,15.904,35.453,35.453C345.472,392.898,329.567,408.803,310.019,408.803z M316.854,271.501
			c-19.549,0-35.453-15.904-35.453-35.454c0-19.549,15.904-35.453,35.453-35.453s35.453,15.904,35.453,35.453
			C352.308,255.597,336.403,271.501,316.854,271.501z M323.056,134.199c-19.55,0-35.454-15.904-35.454-35.453
			c0-19.55,15.904-35.454,35.454-35.454c19.549,0,35.453,15.904,35.453,35.454C358.509,118.295,342.604,134.199,323.056,134.199z"/>
	</g>
</g>
<g>
</g>
<g>
</g>
<g>
</g>
<g>
</g>
<g>
</g>
<g>
</g>
<g>
</g>
<g>
</g>
<g>
</g>
<g>
</g>
<g>
</g>
<g>
</g>
<g>
</g>
<g>
</g>
<g>
</g>
</svg>
