<?xml version="1.0" encoding="iso-8859-1"?>
<!-- Generator: Adobe Illustrator 19.0.0, SVG Export Plug-In . SVG Version: 6.00 Build 0)  -->
<svg version="1.1" id="Layer_1" xmlns="http://www.w3.org/2000/svg" xmlns:xlink="http://www.w3.org/1999/xlink" x="0px" y="0px"
	 viewBox="0 0 512.001 512.001" style="enable-background:new 0 0 512.001 512.001;" xml:space="preserve">
<g>
	<g>
		<path d="M463.444,0.874l-26.16,22.581L413.83,0l-21.228,21.228l21.896,21.896l-8.475,7.316l-25.05-25.05l-21.228,21.228
			l23.491,23.491l-25.65,22.141l17.779,17.778l-121.36,121.36l-8.988-5.779c-1.51-0.971-2.206-2.787-1.732-4.518l6.124-22.354
			c4.051-14.786-2.049-30.142-15.18-38.212c-12.928-7.946-29.125-6.479-40.308,3.651c-0.391,0.354-0.762,0.708-1.114,1.059
			c-19.004,19.005-26.974,34.431-34.006,48.041c-6.464,12.511-12.047,23.316-25.785,37.054
			c-9.943,9.943-22.827,14.829-37.746,20.485c-16.611,6.298-35.437,13.437-51.248,29.246
			c-27.272,27.274-36.121,57.247-26.301,89.087c8.645,28.03,30.488,52.36,48.551,70.424c18.063,18.063,42.391,39.906,70.423,48.551
			c8.389,2.587,16.644,3.878,24.759,3.878c22.683-0.001,44.24-10.095,64.329-30.183c15.81-15.811,22.948-34.637,29.246-51.248
			c5.656-14.918,10.541-27.802,20.484-37.745c9.725-9.724,17.438-13.344,26.37-17.537c9.997-4.692,21.328-10.01,34.677-23.359
			c2.973-2.973,6.123-7.268,9.629-13.131c6.408-10.714,6.51-23.58,0.272-34.418c-6.167-10.715-17.66-17.246-30.023-17.119
			l-28.275,0.358c-1.884,0.07-3.535-1.235-4.008-3.063l-1.224-4.73l131.115-131.115l20.124,20.124l63.988-81.948L463.444,0.874z
			 M156.125,427.664l-57.947-57.949l21.229-21.228l57.947,57.949L156.125,427.664z M195.028,377.744l-46.929-46.932l21.229-21.228
			l46.929,46.932L195.028,377.744z"/>
	</g>
</g>
<g>
</g>
<g>
</g>
<g>
</g>
<g>
</g>
<g>
</g>
<g>
</g>
<g>
</g>
<g>
</g>
<g>
</g>
<g>
</g>
<g>
</g>
<g>
</g>
<g>
</g>
<g>
</g>
<g>
</g>
</svg>
