<svg height="512pt" viewBox="-41 0 512 512" width="512pt" xmlns="http://www.w3.org/2000/svg"><path d="m327.820312 292.304688-18.648437 29.433593c9.769531 3.539063 19.207031 7.476563 29.183594 12.570313zm0 0"/><path d="m348.808594 375.96875c-77.804688-59.382812-252.234375-59.613281-330.238282.132812l-16.878906 67.269532c-8.75 34.929687 17.578125 68.628906 53.339844 68.628906h257.347656c35.78125 0 62.082032-33.734375 53.339844-68.628906zm-135.109375 45.652344h-60c-8.28125 0-15-6.710938-15-15 0-8.28125 6.71875-15 15-15h60c8.289062 0 15 6.71875 15 15 0 8.289062-6.710938 15-15 15zm0 0"/><path d="m168.703125 301.527344v-30.527344h-15c-8.285156 0-15-6.714844-15-15s6.714844-15 15-15h15v-30.25h-15c-8.285156 0-15-6.714844-15-15s6.714844-15 15-15h15v-30.25h-15c-8.285156 0-15-6.714844-15-15s6.714844-15 15-15h15v-18.136719c0-8.285156 6.714844-15 15-15s15 6.714844 15 15v18.136719h15c8.285156 0 15 6.714844 15 15s-6.714844 15-15 15h-15v30.25h15c8.285156 0 15 6.714844 15 15s-6.714844 15-15 15h-15v30.25h15c8.285156 0 15 6.714844 15 15s-6.714844 15-15 15h-15v30.53125c5.765625.199219 11.480469.523438 17.152344.953125l82.042969-129.464844-25.820313-102.929687c-9.765625-41.277344-46.089844-70.089844-88.375-70.089844s-78.605469 28.8125-88.375 70.082031l-66.28125 264.230469c41.535156-21.234375 92.253906-31.121094 139.65625-32.785156zm0 0"/><path d="m423.101562 58.988281c-7-4.4375-16.261718-2.359375-20.703124 4.640625l-18.359376 28.972656c-41.382812-9.847656-71.996093 38.566407-45.578124 71.910157l-89.902344 141.859375c10.769531 1.71875 21.28125 3.878906 31.421875 6.46875l83.847656-132.320313c41.359375 9.363281 71.007813-38.609375 45.410156-71.640625l18.5-29.199218c4.441407-6.988282 2.363281-16.257813-4.636719-20.691407zm-49.402343 92.640625c-8.269531 0-15-6.789062-15-15.128906s6.730469-15.121094 15-15.121094c8.230469 0 15 6.753906 15 15.121094 0 8.339844-6.730469 15.128906-15 15.128906zm0 0"/></svg>